<?xml version="1.0"?>
<svg width="220" height="220" xmlns="http://www.w3.org/2000/svg" xmlns:svg="http://www.w3.org/2000/svg" preserveAspectRatio="xMidYMid meet" transform="translate3d(0px, 0px, 0px)">
 <defs>
  <clipPath id="__lottie_element_2">
   <rect height="400" id="svg_1" width="400" x="0" y="0"/>
  </clipPath>
 </defs>
 <g class="layer">
  <title>Layer 1</title>
  <g id="svg_146">
   <g display="block" id="svg_3" transform="matrix(0.769543 0 0 0.831585 -53.9127 -421.069)">
    <g id="svg_4" transform="matrix(1 0 0 1 15.653 12.434)">
     <path d="m153,621.07c0,0 -18.17,8.39 -18.17,8.39c0,0 23.14,15.97 23.14,15.97c0,0 -1.29,-23.12 -1.29,-23.12c0,0 -3.68,-1.24 -3.68,-1.24z" fill="rgb(168,139,187)" id="svg_5"/>
    </g>
    <g id="svg_6" transform="matrix(1 0 0 1 16.172 19.136)">
     <path d="m134.31,622.76c0,0 -1.49,15.97 -1.49,15.97c0,0 27.16,5.01 27.16,5.01c0,0 -4.4,-10.32 -4.4,-10.32c0,0 -21.27,-10.66 -21.27,-10.66z" fill="rgb(125,100,140)" id="svg_7"/>
    </g>
    <g id="svg_8" transform="matrix(1 0 0 1 15.003 37.131)">
     <path d="m156.5,622.69c0,0 -22.52,-1.95 -22.52,-1.95c0,0 -2.33,25.02 -2.33,25.02c0,0 29.5,-6.61 29.5,-6.61c0,0 -4.65,-16.46 -4.65,-16.46z" fill="rgb(181,139,159)" id="svg_9"/>
    </g>
    <g id="svg_10" transform="matrix(1 0 0 1 13.739 52.887)">
     <path d="m157.3,621.23c0,0 -24.39,8.78 -24.39,8.78c0,0 23.6,15.26 23.6,15.26c0,0 3.38,-13.55 3.38,-13.55c0,0 -2.59,-10.49 -2.59,-10.49z" fill="rgb(153,106,129)" id="svg_11"/>
    </g>
   </g>
   <g display="block" id="svg_12" transform="matrix(0.769543 0 0 0.831585 18.2065 -444.25)">
    <g id="svg_13" transform="matrix(1 0 0 1 13.369 15.048)">
     <path d="m133.59,629.41c0,0 13.89,-10.96 13.89,-10.96c0,0 3.16,-2.11 3.16,-2.11c0,0 7.59,5.68 7.59,5.68c0,0 1.29,10.35 1.29,10.35c0,0 -15.02,15.68 -15.02,15.68c0,0 -11.22,-2.64 -11.22,-2.64c0,0 0.31,-16 0.31,-16z" fill="rgb(153,106,129)" id="svg_14"/>
    </g>
   </g>
   <g display="block" id="svg_15" transform="matrix(0.769543 0 0 0.831585 8.7696 -435.135)">
    <g id="svg_16" transform="matrix(1 0 0 1 11.99 19.723)">
     <path d="m147.23,613.78c0,0 10.91,18.63 10.91,18.63c0,0 -23.48,20.31 -23.48,20.31c0,0 0.31,-33.14 0.31,-33.14c0,0 12.26,-5.8 12.26,-5.8z" fill="rgb(181,139,159)" id="svg_17"/>
    </g>
   </g>
   <g display="block" id="svg_18" transform="matrix(0.769543 0 0 0.831585 29.1356 -525.628)">
    <g id="svg_19" transform="matrix(1 0 0.00000696218 1 -0.000732422 0)">
     <g id="svg_20" transform="matrix(1 0 0 1 9.031 101.924)">
      <path d="m144.9,623.15c0,0 7.04,2.82 7.04,2.82c0,0 3.23,10.21 3.23,10.21c0,0 -3.91,5.44 -3.91,5.44c0,0 -1.61,1.73 -1.61,1.73c0,0 -12.04,-13.92 -12.04,-13.92c0,0 7.29,-6.28 7.29,-6.28z" fill="rgb(120,86,103)" id="svg_21"/>
     </g>
     <g id="svg_22" transform="matrix(1 0 0 1 21.452 96.205)">
      <path d="m146.2,623.68c0,0 6.58,0.33 6.58,0.33c0,0 0.51,14.96 0.51,14.96c0,0 0.59,1.9 0.59,1.9c0,0 -8.62,1.95 -8.62,1.95c0,0 -3.77,-1.95 -3.77,-1.95c0,0 -2.59,-10.91 -2.59,-10.91c0,0 7.3,-6.28 7.3,-6.28z" fill="rgb(196,155,127)" id="svg_23"/>
     </g>
     <g id="svg_24" transform="matrix(1 0 0 1 17.9 96.735)">
      <path d="m150.33,621.86c0,0 -6.2,-0.46 -6.2,-0.46c0,0 -1.68,22.6 -1.68,22.6c0,0 3.67,1.1 3.67,1.1c0,0 2.58,-1.39 2.58,-1.39c0,0 1.63,-21.85 1.63,-21.85z" fill="rgb(153,106,129)" id="svg_25"/>
     </g>
     <g id="svg_26" transform="matrix(1 0 0 1 20.657 41.71)">
      <path d="m147.73,674.71c0,0 3.52,-46.36 3.52,-46.36c0,0 -1.68,-26.46 -1.68,-26.46c0,0 -5.01,-10.1 -5.01,-10.1c0,0 0.52,37.45 0.52,37.45c0,0 -3.55,45.01 -3.55,45.01c0,0 6.2,0.46 6.2,0.46z" fill="rgb(197,197,197)" id="svg_27"/>
     </g>
     <g id="svg_28" transform="matrix(1 0 0 1 18.899 77.745)">
      <path d="m149.49,638.67c0,0 -2.23,-11.98 -2.23,-11.98c0,0 -3.97,11.53 -3.97,11.53c0,0 2.88,1.59 2.88,1.59c0,0 3.32,-1.14 3.32,-1.14z" fill="rgb(146,146,146)" id="svg_29"/>
     </g>
     <g id="svg_30" transform="matrix(1 0 0 1 18.849 96.328)">
      <path d="m147.48,647.76c0,0 -6.04,-0.54 -6.04,-0.54c0,0 0.06,-2.82 0.06,-2.82c0,0 6.77,-1.99 6.77,-1.99c0,0 7.29,-4.02 7.29,-4.02c0,0 2.16,-5.82 2.16,-5.82c0,0 0.64,-7.55 0.64,-7.55c0,0 -27.38,-2.02 -27.38,-2.02c0,0 0.32,-4.26 0.32,-4.26c0,0 30.28,2.24 30.28,2.24c0,0 -0.92,10.39 -0.92,10.39c0,0 1.14,8.91 1.14,8.91c0,0 -14.32,7.48 -14.32,7.48z" fill="rgb(197,197,197)" id="svg_31"/>
     </g>
     <g id="svg_32" transform="matrix(1 0 0 1 31.139 93.71)">
      <path d="m143.27,641.01c0,0 6.24,1.89 6.24,1.89c0,0 -0.22,-19.3 -0.22,-19.3c0,0 -3.22,4.04 -3.22,4.04c0,0 -2.8,13.37 -2.8,13.37z" fill="rgb(165,165,165)" id="svg_33"/>
     </g>
     <g id="svg_34" transform="matrix(1 0 0 1 16.262 91.953)">
      <path d="m137.67,633.12c0,0 4.74,-5.61 4.74,-5.61c0,0 9.71,-3.04 9.71,-3.04c0,0 2.99,4.5 2.99,4.5c0,0 -6.52,3.77 -6.52,3.77c0,0 -4,9.29 -4,9.29c0,0 -6.92,-8.91 -6.92,-8.91z" fill="rgb(223,190,167)" id="svg_35"/>
     </g>
    </g>
   </g>
   <g display="block" id="svg_36" transform="matrix(0.769543 0 0 0.831585 -15.304 -374.342)">
    <g id="svg_37" transform="matrix(1 0 0 1 22.817 16.064)">
     <path d="m156.45,623.95c0,0 11.89,3.54 11.89,3.54c0,0 0.63,18.19 0.63,18.19c0,0 -16.96,3.33 -16.96,3.33c0,0 -16.92,0.05 -16.92,0.05c0,0 -11.26,-5.73 -11.26,-5.73c0,0 24.69,-25.89 24.69,-25.89c0,0 7.93,6.51 7.93,6.51z" fill="rgb(147,122,162)" id="svg_38"/>
    </g>
   </g>
   <g display="block" id="svg_39" transform="matrix(0.769543 0 0 0.831585 6.37714 -365.979)">
    <g id="svg_40" transform="matrix(1 0 0 1 12.406 18.079)">
     <path d="m150.58,615.42c0,0 -16.34,21.52 -16.34,21.52c0,0 9.38,11.81 9.38,11.81c0,0 10.3,2.33 10.3,2.33c0,0 4.64,-5.64 4.64,-5.64c0,0 -7.98,-30.02 -7.98,-30.02z" fill="rgb(120,86,103)" id="svg_41"/>
    </g>
   </g>
   <g display="block" id="svg_42" transform="matrix(0.769543 0 0 0.831585 -239.359 -533.888)">
    <g id="svg_43" transform="matrix(1 0 0 1 346.314 239.666)">
     <path d="m143.97,625.77c0,0 19.79,12.8 19.79,12.8c0,0 -14.24,2.16 -14.24,2.16c0,0 -20.48,-2.16 -20.48,-2.16c0,0 0,-9.5 0,-9.5c0,0 14.93,-3.3 14.93,-3.3z" fill="rgb(153,106,129)" id="svg_44"/>
    </g>
    <g id="svg_45" transform="matrix(1 0 0 1 346.314 247.148)">
     <path d="m129.04,635.41c0,0 12.57,0 12.57,0c0,0 1.16,-2.29 1.16,-2.29c0,0 7.07,2.29 7.07,2.29c0,0 13.92,0 13.92,0c0,0 0,-4.32 0,-4.32c0,0 -34.72,0 -34.72,0c0,0 0,4.32 0,4.32z" fill="rgb(120,86,103)" id="svg_46"/>
    </g>
   </g>
   <g display="block" id="svg_47" transform="matrix(0.769543 0 0 0.831585 -39.6146 -361.842)">
    <g id="svg_48" transform="matrix(1 0 0 1 14.17 11.8)">
     <path d="m132.48,640.3c0,0 16.15,4.5 16.15,4.5c0,0 11.69,-23.09 11.69,-23.09c0,0 -11.46,-0.01 -11.46,-0.01c0,0 -16.38,18.6 -16.38,18.6z" fill="rgb(92,63,77)" id="svg_49"/>
    </g>
   </g>
   <g display="block" id="svg_50" transform="matrix(0.769543 0 0 0.831585 -32.6164 -378.915)">
    <g id="svg_51">
     <g id="svg_52" transform="matrix(1 0 0 1 17.932 28.339)">
      <path d="m164.08,638.95c0,0 -4.94,14.4 -4.94,14.4c0,0 -9.79,3.07 -9.79,3.07c0,0 -13.52,-1.02 -13.52,-1.02c0,0 -7.11,-30.29 -7.11,-30.29c0,0 17.97,-15.03 17.97,-15.03c0,0 11.71,21.94 11.71,21.94c0,0 5.68,6.93 5.68,6.93z" fill="rgb(168,139,187)" id="svg_53"/>
     </g>
     <g id="svg_54" transform="matrix(1 0 0 1 19.018 60.022)">
      <path d="m134.74,623.72c0,0 4.6,19.32 4.6,19.32c0,0 10.03,1.79 10.03,1.79c0,0 2.15,-4.07 2.15,-4.07c0,0 6.54,-19.09 6.54,-19.09c0,0 -23.32,2.05 -23.32,2.05z" fill="rgb(120,86,103)" id="svg_55"/>
     </g>
     <g id="svg_56" transform="matrix(1 0 0 1 24.574 17.143)">
      <path d="m168.21,625.27c0,0 -10.77,24.87 -10.77,24.87c0,0 -32.85,-21.73 -32.85,-21.73c0,0 30.55,-12.05 30.55,-12.05c0,0 13.07,8.91 13.07,8.91z" fill="rgb(125,100,140)" id="svg_57"/>
     </g>
    </g>
    <g id="svg_58">
     <g id="svg_59" transform="matrix(1 0 0 1 19.421 75.349)">
      <path d="m151.12,625.43c0,0 6.54,13.23 6.54,13.23c0,0 -9.44,2.41 -9.44,2.41c0,0 -13.08,-2.41 -13.08,-2.41c0,0 3.8,-10.94 3.8,-10.94c0,0 12.18,-2.29 12.18,-2.29z" fill="rgb(153,106,129)" id="svg_60"/>
     </g>
     <g id="svg_61" transform="matrix(1 0 0 1 19.421 82.923)">
      <path d="m135.14,635.41c0,0 22.52,0 22.52,0c0,0 0,-4.32 0,-4.32c0,0 -22.52,0 -22.52,0c0,0 0,4.32 0,4.32z" fill="rgb(120,86,103)" id="svg_62"/>
     </g>
    </g>
   </g>
   <g display="block" id="svg_63" transform="matrix(0.769543 0 0 0.831585 -39.6138 -432.752)">
    <g id="svg_64" transform="matrix(1 0 0 1 46.69 45.286)">
     <path d="m147.27,604.63c0,0 -3.55,1.07 -3.55,1.07c0,0 -5.57,8.36 -5.57,8.36c0,0 -0.54,20.74 -0.54,20.74c0,0 4.51,18.15 4.51,18.15c0,0 13.07,8.92 13.07,8.92c0,0 -1.35,-31.13 -1.35,-31.13c0,0 -6.57,-26.11 -6.57,-26.11z" fill="rgb(147,122,162)" id="svg_65"/>
    </g>
    <g id="svg_66" transform="matrix(1 0 0 1 34.003 48.035)">
     <path d="m150.84,611.31c0,0 -5.76,-5.29 -5.76,-5.29c0,0 -5.26,1.55 -5.26,1.55c0,0 -1.82,25.54 -1.82,25.54c0,0 2.91,27.37 2.91,27.37c0,0 13.89,-10.27 13.89,-10.27c0,0 -3.96,-38.9 -3.96,-38.9z" fill="rgb(168,139,187)" id="svg_67"/>
    </g>
    <g id="svg_68" transform="matrix(1 0 0 1 39.256 36.33)">
     <path d="m158.4,629.08c0,0 -24.86,1.03 -24.86,1.03c0,0 0.34,7.31 0.34,7.31c0,0 25.38,-2.61 25.38,-2.61c0,0 -0.86,-5.73 -0.86,-5.73z" fill="rgb(222,222,220)" id="svg_69"/>
    </g>
    <g id="svg_70" transform="matrix(1 0 0 1 40.626 54.086)">
     <path d="m159.61,628.52c0,0 -27.34,2.32 -27.34,2.32c0,0 1.11,7.14 1.11,7.14c0,0 27.15,-3.34 27.15,-3.34c0,0 -0.92,-6.12 -0.92,-6.12z" fill="rgb(222,222,220)" id="svg_71"/>
    </g>
    <g id="svg_72" transform="matrix(1 0 0 1 56.006 38.627)">
     <path d="m153.83,594.87c0,0 1.01,76.76 1.01,76.76c0,0 -8.97,-3.1 -8.97,-3.1c0,0 -7.91,-57.24 -7.91,-57.24c0,0 3.37,-9.84 3.37,-9.84c0,0 12.5,-6.58 12.5,-6.58z" fill="rgb(92,63,77)" id="svg_73"/>
    </g>
    <g id="svg_74" transform="matrix(1 0 0 1 14.382 59.209)">
     <path d="m159.44,596.4c0,0 1.09,52.9 1.09,52.9c0,0 -28.26,28.86 -28.26,28.86c0,0 3.42,-89.82 3.42,-89.82c0,0 15.11,1.65 15.11,1.65c0,0 8.64,6.41 8.64,6.41z" fill="rgb(120,86,103)" id="svg_75"/>
    </g>
   </g>
   <g display="block" id="svg_76" transform="matrix(0.769543 0.00000770806 -0.00000713299 0.831585 -38.2888 -480.589)">
    <g id="svg_77" transform="matrix(1 0 0 1 31.778 41.935)">
     <path d="m124.08,654.52c0,0 2.49,-8.39 2.49,-8.39c0,0 -2.49,-12.03 -2.49,-12.03c0,0 -3.95,-0.41 -3.95,-0.41c0,0 -3.1,3.36 -3.1,3.36c0,0 -0.57,-4.22 -0.57,-4.22c0,0 -1.59,-1.11 -1.59,-1.11c0,0 0,-28.13 0,-28.13c0,0 47.49,-12.03 47.49,-12.03c0,0 15.57,50.11 15.57,50.11c0,0 -16.82,5.36 -16.82,5.36c0,0 -6.58,13.03 -6.58,13.03c0,0 -3.19,14.88 -3.19,14.88c0,0 -2.32,-9.74 -2.32,-9.74c0,0 -4.95,-5.24 -4.95,-5.24c0,0 -8.38,-5.31 -8.38,-5.31c0,0 -11.61,-0.13 -11.61,-0.13z" fill="rgb(223,190,167)" id="svg_78"/>
    </g>
    <g id="svg_79" transform="matrix(1 0 0 1 23.371 46.577)">
     <path d="m134.1,596.21c0,0 3.15,4.7 3.15,4.7c0,0 1.37,3.62 1.37,3.62c0,0 12.04,44.21 12.04,44.21c0,0 18.86,-6.35 18.86,-6.35c0,0 -5.27,7.49 -5.27,7.49c0,0 0.39,6.46 0.39,6.46c0,0 0.68,5.59 0.68,5.59c0,0 -5.57,8.36 -5.57,8.36c0,0 -8.91,-10.55 -8.91,-10.55c0,0 -18.36,-9.86 -18.36,-9.86c0,0 0,-12.94 0,-12.94c0,0 1.84,-5.98 1.84,-5.98c0,0 -1.84,-1.5 -1.84,-1.5c0,0 -7.04,2.95 -7.04,2.95c0,0 -2.16,-5.33 -2.16,-5.33c0,0 1.7,-10.1 1.7,-10.1c0,0 -1.7,-18.04 -1.7,-18.04c0,0 10.82,-2.73 10.82,-2.73z" fill="rgb(196,155,127)" id="svg_80"/>
    </g>
    <g id="svg_81" transform="matrix(1 0 0 1 6.925 37.228)">
     <path d="m145.41,630.75c0,0 4.2,1.93 4.2,1.93c0,0 -5.34,3.07 -5.34,3.07c0,0 -1.08,-2.78 -1.08,-2.78c0,0 2.22,-2.22 2.22,-2.22z" fill="rgb(143,108,90)" id="svg_82"/>
    </g>
    <g id="svg_83" transform="matrix(1 0 0 1 24.564 21.654)">
     <path d="m137.42,629.46c0,0 10.46,0.31 10.46,0.31c0,0 7.5,12.13 7.5,12.13c0,0 -5.73,-17.3 -5.73,-17.3c0,0 -12.23,4.86 -12.23,4.86z" fill="rgb(196,155,127)" id="svg_84"/>
    </g>
    <g id="svg_85" transform="matrix(1 0 0 1 41.056 13.496)">
     <path d="m151.27,627.72c0,0 -7.03,11.06 -7.03,11.06c0,0 -2.71,-8.5 -2.71,-8.5c0,0 9.74,-2.56 9.74,-2.56z" fill="rgb(196,155,127)" id="svg_86"/>
    </g>
    <g id="svg_87" transform="matrix(1 0 0 1 34.653 20.416)">
     <path d="m147.93,623.36c0,0 5.31,17.51 5.31,17.51c0,0 -7.95,2.27 -7.95,2.27c0,0 -5.73,-17.31 -5.73,-17.31c0,0 8.37,-2.47 8.37,-2.47z" fill="rgb(233,204,185)" id="svg_88"/>
    </g>
    <g id="svg_89" transform="matrix(1 0 0 1 37.517 30.422)">
     <path d="m150.38,630.87c0,0 -2.28,4.76 -2.28,4.76c0,0 -5.68,-2.49 -5.68,-2.49c0,0 7.96,-2.27 7.96,-2.27z" fill="rgb(143,108,90)" id="svg_90"/>
    </g>
    <g id="svg_91" transform="matrix(1 0 0 1 33.78 62.693)">
     <path d="m133.69,633.89c0,0 20.54,6.34 20.54,6.34c0,0 4.88,-13.96 4.88,-13.96c0,0 -25.42,7.62 -25.42,7.62z" fill="rgb(143,108,90)" id="svg_92"/>
    </g>
    <g id="svg_93" transform="matrix(1 0 0 1 4.852 26.339)">
     <path d="m141.8,619.18c0,0 9.2,18.95 9.2,18.95c0,0 -9.2,9.19 -9.2,9.19c0,0 0,-28.14 0,-28.14z" fill="rgb(147,122,162)" id="svg_94"/>
    </g>
    <g id="svg_95" transform="matrix(1 0 0 1 12.18 45.281)">
     <path d="m143.67,630.76c0,0 5.46,-2.5 5.46,-2.5c0,0 -5.46,9.98 -5.46,9.98c0,0 0,-7.48 0,-7.48z" fill="rgb(143,108,90)" id="svg_96"/>
    </g>
    <g id="svg_97" transform="matrix(1 0 0 1 23.344 18.609)">
     <path d="m148.8,633.25c0,1.33 -1.07,2.4 -2.4,2.4c-1.33,0 -2.4,-1.07 -2.4,-2.4c0,-1.32 1.07,-2.4 2.4,-2.4c1.33,0 2.4,1.08 2.4,2.4z" fill="rgb(59,60,59)" id="svg_98"/>
    </g>
    <g id="svg_99" transform="matrix(1 0 0 1 41.224 12.998)">
     <path d="m148.8,633.25c0,1.32 -1.07,2.4 -2.4,2.4c-1.33,0 -2.4,-1.08 -2.4,-2.4c0,-1.33 1.07,-2.4 2.4,-2.4c1.33,0 2.4,1.07 2.4,2.4z" fill="rgb(59,60,59)" id="svg_100"/>
    </g>
    <g id="svg_101" opacity="0">
     <path d="m186.59,649.44c0,0 6.59,-1.6 6.59,-1.6" fill-opacity="0" id="svg_102" stroke="rgb(59,59,59)" stroke-miterlimit="4" stroke-width="2"/>
    </g>
    <g id="svg_103" opacity="0">
     <path d="m166.69,654.93c0,0 7.38,-2.23 7.38,-2.23" fill-opacity="0" id="svg_104" stroke="rgb(59,59,59)" stroke-miterlimit="4" stroke-width="2"/>
    </g>
    <g id="svg_105" transform="matrix(1 0 0 1 30.077 10.539)">
     <path d="m161.17,625.93c0,0 -10.12,5.02 -10.12,5.02c0,0 -6.35,2.32 -6.35,2.32c0,0 -14.15,3.67 -14.15,3.67c0,0 1.36,3.63 1.36,3.63c0,0 12.94,-2.7 12.94,-2.7c0,0 8.26,-2.66 8.26,-2.66c0,0 9.14,-4.53 9.14,-4.53c0,0 -1.08,-4.75 -1.08,-4.75z" fill="rgb(147,122,162)" id="svg_106"/>
    </g>
    <g id="svg_107" transform="matrix(1 0 0 1 39.721 40.851)">
     <path d="m160.67,625.2c0,0 -28.54,8.39 -28.54,8.39c0,0 12.07,7.71 12.07,7.71c0,0 11.7,-3.41 11.7,-3.41c0,0 4.77,-12.69 4.77,-12.69z" fill="rgb(143,108,90)" id="svg_108"/>
    </g>
    <g id="svg_109" transform="matrix(1 0 0 1 40.384 41.26)">
     <path d="m135.6,633.65c0,0 21.6,-6.08 21.6,-6.08c0,0 -3.11,8.28 -3.11,8.28c0,0 -10.56,3.08 -10.56,3.08c0,0 -7.93,-5.28 -7.93,-5.28z" fill="rgb(255,255,255)" id="svg_110"/>
    </g>
   </g>
   <g display="block" id="svg_111" transform="matrix(0.769543 0.00000770806 -0.00000713299 0.831585 -40.4747 -434.463)">
    <g id="svg_112" transform="matrix(1 0 0 1 19.905 15.789)">
     <path d="m158.78,630.64c0,0 -19.99,-5.44 -19.99,-5.44c0,0 -12.05,-4.31 -12.05,-4.31c0,0 4.55,12.93 4.55,12.93c0,0 34.77,11.79 34.77,11.79c0,0 -7.28,-14.97 -7.28,-14.97z" fill="rgb(153,106,129)" id="svg_113"/>
    </g>
    <g id="svg_114" transform="matrix(1 0 0 1 6.272 3.994)">
     <path d="m152.42,629.51c0,0 -12.04,3.17 -12.04,3.17c0,0 12.04,4.31 12.04,4.31c0,0 0,-7.48 0,-7.48z" fill="rgb(92,63,77)" id="svg_115"/>
    </g>
    <g id="svg_116" transform="matrix(1 0 0 1 52.058 14.201)">
     <path d="m143.67,619.3c0,0 -9.77,27.9 -9.77,27.9c0,0 25,-25.84 25,-25.84c0,0 -15.23,-2.06 -15.23,-2.06z" fill="rgb(153,106,129)" id="svg_117"/>
    </g>
   </g>
   <g display="block" id="svg_118" transform="matrix(0.769543 0.00000770806 -0.00000713299 0.831585 -58.222 -519.451)">
    <g id="svg_119" transform="matrix(1 0 0 1 48.536 51.406)">
     <path d="m98.11,662.17c0,0 5.3,-2.37 5.3,-2.37c0,0 2.88,-3.98 2.88,-3.98c0,0 6.18,-13.59 6.18,-13.59c0,0 3.09,-16.19 3.09,-16.19c0,0 5.98,-9.16 5.98,-9.16c0,0 -3.56,-11.65 -3.56,-11.65c0,0 21.09,-2.33 21.09,-2.33c0,0 14.49,-7.19 14.49,-7.19c0,0 8.41,11.52 8.41,11.52c0,0 8.84,7.75 8.84,7.75c0,0 6.92,9.22 6.92,9.22c0,0 6.5,5.76 6.5,5.76c0,0 2.84,4.76 2.84,4.76c0,0 7.62,0.91 7.62,0.91c0,0 -11.53,8.03 -11.53,8.03c0,0 -4.38,6.04 -4.38,6.04c0,0 -2.53,-10.5 -2.53,-10.5c0,0 -4.74,-10.37 -4.74,-10.37c0,0 -24.89,4.83 -24.89,4.83c0,0 -22.6,7.19 -22.6,7.19c0,0 -0.91,15.99 -0.91,15.99c0,0 0.91,12.14 0.91,12.14c0,0 -13.54,-0.79 -13.54,-0.79c0,0 -11.68,2.6 -11.68,2.6c0,0 1.22,-4 1.22,-4c0,0 -1.91,-4.62 -1.91,-4.62z" fill="rgb(120,86,103)" id="svg_120"/>
    </g>
    <g id="svg_121" transform="matrix(1 0 0 1 10.816 77.836)">
     <path d="m135.83,635.74c0,0 21.14,1.37 21.14,1.37c0,0 -12.96,-7.72 -12.96,-7.72c0,0 -8.18,6.35 -8.18,6.35z" fill="rgb(181,139,159)" id="svg_122"/>
    </g>
    <g id="svg_123" transform="matrix(1 0 0 1 16.27 62.944)">
     <path d="m151.51,652c0,0 2.73,-27 2.73,-27c0,0 -8.71,-10.5 -8.71,-10.5c0,0 -6.97,29.79 -6.97,29.79c0,0 12.95,7.71 12.95,7.71z" fill="rgb(153,106,129)" id="svg_124"/>
    </g>
    <g id="svg_125" transform="matrix(1 0 0 1 35.663 39.042)">
     <path d="m134.85,648.9c0,0 31.81,-9.3 31.81,-9.3c0,0 -7.39,-4.54 -7.39,-4.54c0,0 -2.26,-7.36 -2.26,-7.36c0,0 -26.15,-10.1 -26.15,-10.1c0,0 -4.72,20.8 -4.72,20.8c0,0 8.71,10.5 8.71,10.5z" fill="rgb(92,63,77)" id="svg_126"/>
    </g>
    <g id="svg_127" transform="matrix(1 0 0 1 61.005 29.628)">
     <path d="m141.31,649.02c0,0 17.05,-5.22 17.05,-5.22c0,0 -0.02,-7.05 -0.02,-7.05c0,0 -17.25,-19.27 -17.25,-19.27c0,0 -6.65,26.57 -6.65,26.57c0,0 6.87,4.97 6.87,4.97z" fill="rgb(120,86,103)" id="svg_128"/>
    </g>
    <g id="svg_129" transform="matrix(1 0 0 1 37.907 27.359)">
     <path d="m164.19,619.75c0,0 -7.16,27 -7.16,27c0,0 -28.42,-17.47 -28.42,-17.47c0,0 35.58,-9.53 35.58,-9.53z" fill="rgb(210,164,186)" id="svg_130"/>
    </g>
    <g id="svg_131" transform="matrix(1 0 0 1 79.66 45.388)">
     <path d="m153.11,635.98c0,0 -1.59,9.53 -1.59,9.53c0,0 -11.82,-17.47 -11.82,-17.47c0,0 -0.01,-7.05 -0.01,-7.05c0,0 13.42,14.99 13.42,14.99z" fill="rgb(153,106,129)" id="svg_132"/>
    </g>
    <g id="svg_133" transform="matrix(1 0 0 1 92.33 52.881)">
     <path d="m140.44,628.49c0,0 -1.59,9.52 -1.59,9.52c0,0 15.1,-5.38 15.1,-5.38c0,0 -13.51,-4.14 -13.51,-4.14z" fill="rgb(181,139,159)" id="svg_134"/>
    </g>
    <g id="svg_135" transform="matrix(1 0 0 1 86.422 54.759)">
     <path d="m159.86,630.75c0,0 0,5.38 0,5.38c0,0 -19.29,11.7 -19.29,11.7c0,0 -6.95,-22.36 -6.95,-22.36c0,0 -0.68,-6.8 -0.68,-6.8c0,0 11.82,16.09 11.82,16.09c0,0 15.1,-4.01 15.1,-4.01z" fill="rgb(92,63,77)" id="svg_136"/>
    </g>
    <g id="svg_137" transform="matrix(1 0 0 1 13.202 71.824)">
     <path d="m157.31,616.12c0,0 2.04,4.31 2.04,4.31c0,0 0,28.13 0,28.13c0,0 -25.22,1.82 -25.22,1.82c0,0 -0.68,-8.62 -0.68,-8.62c0,0 16.02,-1.69 16.02,-1.69c0,0 7.84,-23.95 7.84,-23.95z" fill="rgb(92,63,77)" id="svg_138"/>
    </g>
    <g id="svg_139" transform="matrix(1 0 0 1 48.877 49.591)">
     <path d="m170.49,623.84c0,0 -17.05,5.21 -17.05,5.21c0,0 -31.81,9.31 -31.81,9.31c0,0 2.05,4.3 2.05,4.3c0,0 47.49,-12.02 47.49,-12.02c0,0 -0.68,-6.8 -0.68,-6.8z" fill="rgb(153,106,129)" id="svg_140"/>
    </g>
    <g id="svg_141">
     <g id="svg_142" transform="matrix(1 0 0 1 39.106 11.252)">
      <path d="m149.58,644.25c0,0 2.05,-12.02 2.05,-12.02c0,0 -10.46,-9.98 -10.46,-9.98c0,0 2.85,11.88 2.85,11.88c0,0 5.56,10.12 5.56,10.12z" fill="rgb(153,106,129)" id="svg_143"/>
     </g>
     <g id="svg_144" transform="matrix(1 0 0 1 36.721 11.252)">
      <path d="m151.97,644.25c0,0 -8.41,-22 -8.41,-22c0,0 -2.73,12.47 -2.73,12.47c0,0 11.14,9.53 11.14,9.53z" fill="rgb(181,139,159)" id="svg_145"/>
     </g>
    </g>
   </g>
  </g>
 </g>
</svg>